<svg id="Capa_1" enable-background="new 0 0 512 512" height="512" viewBox="0 0 512 512" width="512" xmlns="http://www.w3.org/2000/svg"><g><path d="m82.5 312h347c4.143 0 7.5-3.358 7.5-7.5v-232c0-4.142-3.357-7.5-7.5-7.5h-347c-4.142 0-7.5 3.358-7.5 7.5v101c0 4.142 3.358 7.5 7.5 7.5s7.5-3.358 7.5-7.5v-93.5h332v217h-332v-93.5c0-4.142-3.358-7.5-7.5-7.5s-7.5 3.358-7.5 7.5v101c0 4.142 3.358 7.5 7.5 7.5z"/><path d="m511.394 436.545-37.208-86.817c-3.618-8.443-10.091-15.045-18.003-18.912 6.683-6.774 10.817-16.07 10.817-26.316v-232c0-20.678-16.822-37.5-37.5-37.5h-347c-20.678 0-37.5 16.822-37.5 37.5v232c0 10.246 4.134 19.542 10.818 26.317-7.912 3.866-14.385 10.468-18.004 18.911l-37.208 86.817c-.399.934-.606 1.939-.606 2.955 0 20.678 16.822 37.5 37.5 37.5h437c20.678 0 37.5-16.822 37.5-37.5 0-1.016-.206-2.021-.606-2.955zm-451.394-364.045c0-12.407 10.093-22.5 22.5-22.5h347c12.406 0 22.5 10.093 22.5 22.5v232c0 12.407-10.094 22.5-22.5 22.5h-347c-12.407 0-22.5-10.093-22.5-22.5zm-8.399 283.137c3.55-8.284 11.668-13.637 20.681-13.637h367.436c9.014 0 17.131 5.353 20.681 13.637l32.727 76.363h-474.252zm249.399 91.363v15h-90v-15zm-284.704 0h179.704v15h-158.5c-9.776 0-18.107-6.272-21.204-15zm458.204 15h-158.5v-15h179.704c-3.097 8.728-11.428 15-21.204 15z"/><path d="m59.425 402h393.15c2.521 0 4.873-1.267 6.262-3.371 1.388-2.105 1.625-4.766.632-7.083l-12.857-30c-1.182-2.757-3.894-4.545-6.894-4.545h-367.436c-3 0-5.712 1.788-6.894 4.545l-12.857 30c-.993 2.317-.755 4.979.632 7.083 1.388 2.104 3.741 3.371 6.262 3.371zm17.802-30h357.545l6.429 15h-370.402z"/></g></svg>