<svg xmlns="http://www.w3.org/2000/svg" width="63" height="69.393" viewBox="0 0 63 69.393"><defs><style>.a{fill:#e1e6e9;}.b{fill:#cbcbcb;}.c{fill:#4ad194;}.d{fill:#35b79e;}.e{fill:#1e9690;}.f{fill:#636a75;}.g{fill:#515a66;}</style></defs><g transform="translate(-23.584)"><path class="a" d="M65.166,72.931l-3.013,1.583a1.655,1.655,0,0,1-1.54,0L57.6,72.931c-16.543-8.695-26.73-24.74-26.73-42.1v-10.6a1.646,1.646,0,0,1,1.46-1.644c5.7-.6,10.236-4.684,10.958-9.846a1.665,1.665,0,0,1,1.642-1.448H77.836a1.665,1.665,0,0,1,1.642,1.448c.723,5.163,5.256,9.245,10.958,9.846a1.646,1.646,0,0,1,1.46,1.644v10.6C91.9,48.191,81.709,64.236,65.166,72.931Z" transform="translate(-6.299 -6.299)"/><path class="b" d="M282.1,18.581c-5.7-.6-10.236-4.684-10.958-9.847A1.665,1.665,0,0,0,269.5,7.286h-2.24C267.58,14.444,272.68,19.52,278.2,20.1a1.646,1.646,0,0,1,1.46,1.644v10.6c0,17.361-10.187,33.406-26.73,42.1l-.348.183a1.653,1.653,0,0,0,1.234-.121l3.013-1.583c16.543-8.695,26.73-24.74,26.73-42.1v-10.6A1.646,1.646,0,0,0,282.1,18.581Z" transform="translate(-197.96 -6.299)"/><path class="c" d="M91.209,97.854A47.4,47.4,0,0,1,73.164,81.466a41.064,41.064,0,0,1-6.5-22.012V53.435A2.125,2.125,0,0,1,68,51.457a18.653,18.653,0,0,0,10.03-9.219,2.12,2.12,0,0,1,1.918-1.2H104.7a2.12,2.12,0,0,1,1.918,1.2,18.653,18.653,0,0,0,10.03,9.219,2.125,2.125,0,0,1,1.339,1.978v6.019a41.063,41.063,0,0,1-6.5,22.012A47.4,47.4,0,0,1,93.442,97.854l-.125.066a2.132,2.132,0,0,1-1.984,0Z" transform="translate(-37.241 -35.474)"/><path class="d" d="M280.323,51.456l-.1-.043-.173-.071-.294-.125-.169-.074q-.156-.07-.311-.142l-.14-.065q-.223-.106-.443-.216l-.033-.017q-.2-.1-.4-.211l-.141-.078c-.1-.053-.194-.107-.29-.162l-.159-.092-.27-.161-.156-.1c-.094-.058-.186-.117-.279-.176l-.135-.087q-.19-.124-.376-.252l-.028-.019q-.2-.138-.4-.281L275.9,49q-.134-.1-.267-.2l-.141-.11q-.122-.1-.243-.194l-.14-.115q-.124-.1-.245-.207l-.125-.107q-.15-.131-.3-.266l-.061-.055q-.177-.162-.349-.329l-.1-.1q-.122-.12-.243-.242l-.122-.126q-.108-.111-.213-.225l-.123-.133q-.106-.115-.209-.233l-.112-.127c-.081-.093-.16-.188-.239-.282l-.069-.082q-.151-.184-.3-.372l-.074-.1q-.108-.141-.214-.284l-.1-.138q-.091-.126-.179-.253l-.1-.149q-.087-.128-.171-.257l-.094-.144c-.063-.1-.124-.2-.185-.3l-.067-.109q-.123-.2-.24-.409l-.049-.088q-.092-.164-.181-.329l-.077-.147q-.072-.139-.142-.279l-.079-.161c-.02-.041-.041-.081-.06-.122a2.12,2.12,0,0,0-1.918-1.2H256V98.163a2.13,2.13,0,0,0,.992-.245l.125-.066a47.4,47.4,0,0,0,18.045-16.388,41.063,41.063,0,0,0,6.5-22.012V53.434A2.125,2.125,0,0,0,280.323,51.456Z" transform="translate(-200.917 -35.473)"/><path class="e" d="M280.323,51.456l-.1-.043-.173-.071-.294-.125-.169-.074q-.156-.07-.311-.142l-.14-.065q-.223-.106-.443-.216l-.033-.017q-.2-.1-.4-.211l-.141-.078c-.1-.053-.194-.107-.29-.162l-.159-.092q-.136-.079-.27-.161l-.156-.1c-.094-.058-.186-.117-.279-.176l-.135-.087q-.189-.124-.376-.252l-.028-.019q-.2-.138-.4-.281L275.9,49q-.134-.1-.267-.2l-.142-.11q-.122-.1-.243-.194l-.14-.115q-.124-.1-.245-.207l-.125-.107q-.15-.131-.3-.266l-.061-.055q-.177-.162-.349-.329l-.1-.1c-.082-.08-.163-.161-.243-.242l-.122-.126q-.108-.111-.213-.225l-.123-.133q-.106-.115-.209-.233l-.112-.127c-.081-.093-.16-.188-.239-.282l-.069-.082q-.151-.184-.3-.372l-.074-.1q-.108-.141-.214-.284l-.1-.138q-.091-.126-.179-.253l-.1-.149q-.087-.128-.171-.257l-.094-.144c-.063-.1-.124-.2-.185-.3l-.068-.109q-.123-.2-.24-.409l-.049-.088q-.092-.164-.181-.329c-.026-.049-.051-.1-.077-.147-.048-.093-.1-.186-.142-.279l-.079-.161c-.02-.041-.041-.081-.06-.122a2.121,2.121,0,0,0-1.918-1.2H264.95a19.009,19.009,0,0,1,1.505,2.271c.023.039.04.081.06.122l.079.161q.07.14.142.279c.026.049.051.1.077.147q.088.166.181.329l.049.088q.117.206.24.409l.068.109q.091.148.185.3l.094.144q.085.129.171.257l.1.149q.088.127.179.253l.1.138c.07.1.142.19.214.284l.074.1q.146.188.3.372l.069.082c.079.095.158.189.239.282l.112.127q.1.117.209.233l.123.133q.106.113.213.225l.122.126q.12.122.243.242l.1.1q.172.167.349.329l.061.055q.147.134.3.266l.125.107q.122.1.245.207l.14.115q.121.1.243.194l.142.11q.133.1.267.2l.121.09q.2.143.4.281l.028.019q.186.128.376.252l.135.087q.139.089.279.176l.156.1q.134.081.27.161l.159.092q.144.082.29.162l.141.078q.2.108.4.211l.033.017q.219.111.443.216l.14.065c.1.048.207.1.311.142l.169.074.294.125.173.071.1.043a2.125,2.125,0,0,1,1.339,1.978v6.019a41.063,41.063,0,0,1-6.5,22.012A50.574,50.574,0,0,1,256,98.107v.056a2.13,2.13,0,0,0,.992-.245l.125-.066a47.4,47.4,0,0,0,18.045-16.388,41.063,41.063,0,0,0,6.5-22.012V53.434A2.125,2.125,0,0,0,280.323,51.456Z" transform="translate(-200.917 -35.473)"/><path class="f" d="M181.914,207.6H159.367a2.153,2.153,0,0,1-2.153-2.153v-14.14a2.153,2.153,0,0,1,2.153-2.153h22.547a2.153,2.153,0,0,1,2.153,2.153v14.14A2.153,2.153,0,0,1,181.914,207.6Z" transform="translate(-115.519 -163.516)"/><path class="g" d="M314.594,189.152h-3.9a2.153,2.153,0,0,1,2.153,2.153v14.14A2.153,2.153,0,0,1,310.7,207.6h3.9a2.153,2.153,0,0,0,2.153-2.153v-14.14A2.153,2.153,0,0,0,314.594,189.152Z" transform="translate(-248.198 -163.516)"/><path d="M240.539,236.658v2.812a.988.988,0,1,0,1.975,0v-2.812a2.313,2.313,0,1,0-1.975,0Z" transform="translate(-186.405 -200.777)"/><path d="M84.452,92.428h0l.125.066a3.119,3.119,0,0,0,2.9,0l.125-.066A48.387,48.387,0,0,0,106.022,75.7a42.05,42.05,0,0,0,6.654-22.542V47.135a3.1,3.1,0,0,0-1.963-2.9,17.561,17.561,0,0,1-9.5-8.725A3.121,3.121,0,0,0,98.4,33.749H73.653a3.121,3.121,0,0,0-2.809,1.766,17.561,17.561,0,0,1-9.5,8.725,3.1,3.1,0,0,0-1.963,2.9v6.019A42.048,42.048,0,0,0,66.033,75.7,48.386,48.386,0,0,0,84.452,92.428Zm-23.1-39.274V47.135a1.131,1.131,0,0,1,.715-1.059,19.528,19.528,0,0,0,10.559-9.713,1.136,1.136,0,0,1,1.026-.639H98.4a1.137,1.137,0,0,1,1.026.639,19.53,19.53,0,0,0,10.559,9.713,1.131,1.131,0,0,1,.715,1.059v6.019a40.078,40.078,0,0,1-6.346,21.483A46.412,46.412,0,0,1,86.685,90.68l-.125.066a1.143,1.143,0,0,1-1.065,0l-.125-.065A46.412,46.412,0,0,1,67.7,74.638,40.078,40.078,0,0,1,61.354,53.155Z" transform="translate(-30.944 -29.175)"/><path d="M91.614,245.567a.987.987,0,0,0-1.181.746c-3.008,13.306-12.168,24.846-25.133,31.66l-3.013,1.584a.668.668,0,0,1-.621,0l-3.013-1.584c-12.985-6.825-22.15-18.384-25.145-31.715a.988.988,0,0,0-1.927.433c3.122,13.9,12.655,25.935,26.153,33.03l3.013,1.584a2.642,2.642,0,0,0,2.459,0l3.013-1.584c13.477-7.084,23-19.1,26.14-32.973A.988.988,0,0,0,91.614,245.567Z" transform="translate(-6.893 -212.216)"/><path d="M84.24,11.3c-5.273-.556-9.42-4.258-10.084-9A2.667,2.667,0,0,0,71.537,0H38.631a2.667,2.667,0,0,0-2.62,2.3c-.664,4.744-4.81,8.445-10.084,9a2.625,2.625,0,0,0-2.344,2.626v10.6a45.459,45.459,0,0,0,.237,4.631.988.988,0,0,0,.981.887,1,1,0,0,0,.1-.005.987.987,0,0,0,.881-1.083,43.49,43.49,0,0,1-.227-4.429v-10.6a.663.663,0,0,1,.576-.662c6.177-.652,11.043-5.048,11.833-10.692a.675.675,0,0,1,.664-.6H71.536a.675.675,0,0,1,.664.6c.79,5.643,5.655,10.04,11.832,10.692a.663.663,0,0,1,.576.662v10.6a43.5,43.5,0,0,1-.222,4.383.988.988,0,0,0,1.965.2,45.47,45.47,0,0,0,.232-4.583v-10.6A2.625,2.625,0,0,0,84.24,11.3Z"/><path d="M175.615,110.67a3.144,3.144,0,0,0,3.141-3.141V93.39a3.144,3.144,0,0,0-3.141-3.141h-1.624V85.535a9.65,9.65,0,0,0-19.3,0v4.714h-1.624a3.144,3.144,0,0,0-3.141,3.141v14.14a3.144,3.144,0,0,0,3.141,3.141ZM156.667,85.535a7.675,7.675,0,0,1,15.349,0v4.714H156.667ZM151.9,107.53V93.39a1.167,1.167,0,0,1,1.166-1.166h22.547a1.167,1.167,0,0,1,1.166,1.166v14.14a1.167,1.167,0,0,1-1.166,1.166H153.068A1.167,1.167,0,0,1,151.9,107.53Z" transform="translate(-109.219 -65.6)"/></g></svg>