<svg xmlns="http://www.w3.org/2000/svg" width="63" height="63" viewBox="0 0 63 63"><defs><style>.a{fill:#ffcebf;}.b{fill:#f6b2b2;}.c{fill:#ffdfcf;}</style></defs><path class="a" d="M5.537,151A5.543,5.543,0,0,0,0,156.537V171.3a5.543,5.543,0,0,0,5.537,5.537H20.426V151Z" transform="translate(0 -132.42)"/><path class="b" d="M360.889,151H346v25.84h14.889a5.543,5.543,0,0,0,5.537-5.537V156.537A5.543,5.543,0,0,0,360.889,151Z" transform="translate(-303.426 -132.42)"/><path class="c" d="M176.84,93.814v33.223l-3.691,3.691H154.691L151,127.037V93.814L154.691,90h18.457Z" transform="translate(-132.42 -78.926)"/><path class="a" d="M268.92,93.814v33.223l-3.691,3.691H256V90h9.229Z" transform="translate(-224.5 -78.926)"/><path class="a" d="M211,181h3.691v3.691H211Z" transform="translate(-185.037 -158.729)"/><path class="b" d="M271,181h3.691v3.691H271Z" transform="translate(-237.654 -158.729)"/><path class="a" d="M211,241h3.691v3.691H211Z" transform="translate(-185.037 -211.346)"/><path class="b" d="M271,241h3.691v3.691H271Z" transform="translate(-237.654 -211.346)"/><path class="b" d="M271,301h3.691v3.691H271Z" transform="translate(-237.654 -263.963)"/><g transform="translate(18.58)"><path class="a" d="M211,301h3.691v3.691H211Z" transform="translate(-203.617 -263.963)"/><path class="a" d="M176.84,5.537v9.352H151V5.537A5.53,5.53,0,0,1,156.537,0H171.3A5.53,5.53,0,0,1,176.84,5.537Z" transform="translate(-151)"/><path class="a" d="M176.84,391v9.352a5.53,5.53,0,0,1-5.537,5.537H156.537A5.53,5.53,0,0,1,151,400.352V391Z" transform="translate(-151 -342.889)"/></g><path class="b" d="M268.92,5.537v9.352H256V0h7.383A5.53,5.53,0,0,1,268.92,5.537Z" transform="translate(-224.5)"/><path class="b" d="M256,391h12.92v9.352a5.53,5.53,0,0,1-5.537,5.537H256Z" transform="translate(-224.5 -342.889)"/></svg>