<svg xmlns="http://www.w3.org/2000/svg" width="65" height="56.027" viewBox="0 0 65 56.027"><defs><style>.a{fill:#edb48a;}.b{fill:#ce8b5d;}.c{fill:#ffdf46;}.d{fill:#ffc32c;}.e{fill:#e3f4ff;}.f{fill:#2c5168;}</style></defs><path class="a" d="M232.387,105.949l26.686,7.2v26.686l-26.686-7.2Zm0,0" transform="translate(-199.887 -91.186)"/><g transform="translate(5.814 14.763)"><path class="b" d="M232.387,105.949v10.972l1.337,1.188,10.312-9.016-3.951-1.066h-.108V108Zm0,0" transform="translate(-205.701 -105.949)"/><path class="b" d="M259.073,162.743V152.107l-3.216-.869-23.47,6.335v1.736l5.814,9.067Zm0,0" transform="translate(-205.701 -144.905)"/><path class="b" d="M68.257,105.949l-26.686,7.2v26.686l26.686-7.2Zm0,0" transform="translate(-41.571 -105.949)"/></g><path class="a" d="M68.257,191.338l-26.686-7.2V157.45l26.686,7.2Zm0,0" transform="translate(-35.757 -135.484)"/><path class="b" d="M41.57,180.559l20.872,5.633,5.814-11.135v-2.012L41.57,167.207Zm0,0" transform="translate(-35.757 -143.877)"/><path class="a" d="M26.686,175.454,0,168.252l5.814-10.8,26.686,7.2Zm0,0" transform="translate(0 -135.483)"/><path class="b" d="M232.387,191.511l26.686-7.24V157.449l-26.686,7.239Zm0,0" transform="translate(-199.887 -135.484)"/><path class="b" d="M259.073,180.559V167.207l-26.686,5.838v2.012l5.814,11.135Zm0,0" transform="translate(-199.887 -143.877)"/><path class="c" d="M167.836,15.891V.387H155.33v15.5h-5.259l11.512,10.231,11.512-10.231Zm0,0" transform="translate(-129.083 -0.387)"/><path class="d" d="M266.555.387h1.474v15.5h-1.474Zm0,0" transform="translate(-229.277 -0.387)"/><path class="d" d="M237.892,111.246l-10.775,9.576.737.655,11.512-10.231Zm0,0" transform="translate(-195.354 -95.742)"/><path class="e" d="M255.176,323.585l5.508-1.487v-5.508l-5.508,1.487Zm0,0" transform="translate(-219.489 -272.368)"/><path class="f" d="M359.1,324.8a.979.979,0,0,1-.255-1.924l5.508-1.486a.979.979,0,0,1,.51,1.89l-5.508,1.486A.988.988,0,0,1,359.1,324.8Zm0,0" transform="translate(-308.042 -276.47)"/><path class="a" d="M238.2,175.454l26.686-7.2-5.814-10.8-26.686,7.2Zm0,0" transform="translate(-199.887 -135.483)"/></svg>