<svg xmlns="http://www.w3.org/2000/svg" width="63" height="61.617" viewBox="0 0 63 61.617"><defs><style>.a{fill:#c0fbff;}.b{fill:#84deea;}.c{fill:#0069a3;}.d{fill:#025f80;}.e{fill:#08c;}.f{fill:#c0f9cf;}.g{fill:#54d680;}.h{fill:#46e093;}.i{fill:#008c6c;}.j{fill:#00b96f;}</style></defs><g transform="translate(0 -0.5)"><path class="a" d="M61.617,31.308A30.808,30.808,0,1,1,30.808.5,30.808,30.808,0,0,1,61.617,31.308Zm0,0" transform="translate(0 0)"/><path class="b" d="M92.05,232.794v5.03a1.257,1.257,0,1,1-2.515,0v-5.03a2.518,2.518,0,0,0-2.515-2.515H67.466v7.545a1.257,1.257,0,1,1-2.515,0v-7.545H45.4a2.518,2.518,0,0,0-2.515,2.515v5.03a1.257,1.257,0,1,1-2.515,0v-5.03a5.036,5.036,0,0,1,5.03-5.03H64.951v-6.287a1.257,1.257,0,1,1,2.515,0v6.287H87.02a5.035,5.035,0,0,1,5.03,5.03Zm0,0" transform="translate(-35.4 -192.683)"/><path class="c" d="M152.184,37.206H124.52a1.887,1.887,0,0,1-1.887-1.887v-17.6a1.887,1.887,0,0,1,1.887-1.887h27.664a1.886,1.886,0,0,1,1.887,1.887v17.6A1.886,1.886,0,0,1,152.184,37.206Zm0,0" transform="translate(-107.543 -13.443)"/><path class="d" d="M213.054,88.3h-7.8a1.886,1.886,0,0,1-1.886-1.886v-17.6a1.886,1.886,0,0,1,1.886-1.887h7.8a1.886,1.886,0,0,1,1.887,1.887v17.6A1.886,1.886,0,0,1,213.054,88.3Zm0,0" transform="translate(-178.347 -58.252)"/><path class="e" d="M172.641,41.607a1.886,1.886,0,0,1-1.886,1.886H157.928a1.886,1.886,0,0,1,0-3.773h12.827A1.886,1.886,0,0,1,172.641,41.607Zm5.533-25.779H154.156a1.887,1.887,0,0,0-1.887,1.887v17.6a1.887,1.887,0,0,0,1.887,1.887h24.018a1.886,1.886,0,0,0,1.887-1.887v-17.6A1.886,1.886,0,0,0,178.174,15.828Zm0,0" transform="translate(-133.533 -13.442)"/><path class="f" d="M169.573,52.616H146.121a1.257,1.257,0,0,1-1.257-1.257V37.527a1.257,1.257,0,0,1,1.257-1.257h23.452a1.257,1.257,0,0,1,1.257,1.257V51.359A1.257,1.257,0,0,1,169.573,52.616Zm0,0" transform="translate(-127.038 -31.368)"/><path class="g" d="M204.152,370.838a7.545,7.545,0,1,1-7.545-7.545A7.545,7.545,0,0,1,204.152,370.838Zm16.136-7.545a7.545,7.545,0,1,0,7.545,7.545A7.545,7.545,0,0,0,220.288,363.293Zm0,0" transform="translate(-165.799 -318.152)"/><path class="h" d="M63.423,370.838a7.5,7.5,0,0,1-1.01,3.768,7.543,7.543,0,0,1-10.3-10.3,7.543,7.543,0,0,1,11.314,6.535Zm-32.192-7.545a7.508,7.508,0,0,0-2.641.478,30.944,30.944,0,0,0,9.264,10.677,7.541,7.541,0,0,0-6.623-11.155Zm48.328,0a7.5,7.5,0,0,0-3.769,1.01,7.543,7.543,0,0,0,10.3,10.3,7.543,7.543,0,0,0-6.535-11.314Zm0,0" transform="translate(-25.072 -318.152)"/><path class="i" d="M197.259,66.892,193.7,63.336a1.886,1.886,0,0,1,2.668-2.668l2.223,2.223,5.632-5.632a1.886,1.886,0,0,1,2.668,2.668l-6.966,6.966a1.885,1.885,0,0,1-2.667,0Zm8.223,29.928-5.632,5.632-2.223-2.223a1.886,1.886,0,1,0-2.668,2.667l3.557,3.557a1.885,1.885,0,0,0,2.667,0l6.966-6.966a1.886,1.886,0,0,0-2.667-2.668Zm26.349,0a1.887,1.887,0,0,0-2.668,0l-5.632,5.632-2.223-2.223a1.886,1.886,0,0,0-2.668,2.667l3.557,3.557a1.886,1.886,0,0,0,2.667,0l6.966-6.966a1.886,1.886,0,0,0,0-2.668Zm0,0" transform="translate(-169.383 -49.291)"/><path class="j" d="M82.872,65.437,79.315,61.88a1.885,1.885,0,0,1-.511-1.722,1.882,1.882,0,0,1,1.722.511l2.223,2.223,5.632-5.632a1.886,1.886,0,0,1,2.668,2.667l-5.509,5.509a1.887,1.887,0,0,1-2.668,0Zm33.115,31.385a1.887,1.887,0,0,0-2.668,0l-5.632,5.632-2.223-2.223a1.885,1.885,0,0,0-1.722-.511,1.883,1.883,0,0,0,.511,1.722L107.81,105a1.886,1.886,0,0,0,2.668,0l5.509-5.509a1.886,1.886,0,0,0,0-2.667Zm-51,0-3.94,3.94a31.051,31.051,0,0,0,2.64,2.7l3.968-3.968a1.886,1.886,0,0,0-2.668-2.668Zm24.647,0-5.632,5.632-2.223-2.223a1.885,1.885,0,0,0-1.722-.511,1.883,1.883,0,0,0,.511,1.722L84.129,105a1.886,1.886,0,0,0,2.668,0l5.509-5.509a1.886,1.886,0,0,0-2.668-2.667Zm0,0" transform="translate(-53.539 -49.291)"/></g></svg>