<svg xmlns="http://www.w3.org/2000/svg" width="62.762" height="62.761" viewBox="0 0 62.762 62.761"><defs><style>.a{fill:#73c3f9;}.b{fill:#e9efff;}.c{fill:#d3dcfb;}.d{fill:#2a428c;}.e{fill:#1c2e7a;}.f{fill:#ff4155;}.g{fill:#ffdd40;}.h{fill:#38c674;}.i{fill:#24b55e;}.j{fill:#ffb332;}.k{fill:#e80054;}.l{fill:#bec8f7;}.m{fill:#4fabf7;}.n{fill:#1e9ef4;}.o{fill:#ffc839;}.p{fill:#4b6bb2;}.q{fill:#49d88b;}.r{fill:#73f9a9;}.s{fill:#ffe98d;}.t{fill:#ff9100;}</style></defs><path class="a" d="M50.771,73.751a30.031,30.031,0,1,0-46.2-5.8Z" transform="translate(0 -19.3)"/><path class="b" d="M82.056,133.21a15.71,15.71,0,0,1-10.036-12.4H35.91v33.58a30.194,30.194,0,0,0,6.6,7.577l4.282,2.932h0a30.04,30.04,0,0,0,35.7-4.664V133.29A1.282,1.282,0,0,1,82.056,133.21Z" transform="translate(-31.508 -105.997)"/><path class="c" d="M35.91,154.386a30.182,30.182,0,0,0,6.3,7.32V123.89c0-2.492,3.024-2.838,3.024-2.838a3.249,3.249,0,0,0,.333-.245H35.91Z" transform="translate(-31.508 -105.998)"/><path class="d" d="M71.837,46.385a.381.381,0,0,1,.3-.37,3.946,3.946,0,0,0,1.788-.9H38.43a2.52,2.52,0,0,0-2.52,2.52v3.576H71.837Z" transform="translate(-31.508 -39.589)"/><path class="e" d="M46.716,45.12H38.429a2.52,2.52,0,0,0-2.52,2.52v3.576H46.73c-.008-.078-.015-.123-.015-.123a1.246,1.246,0,0,1,0-1.988V47.267A1.336,1.336,0,0,1,46.716,45.12Z" transform="translate(-31.507 -39.589)"/><g transform="translate(7.659 7.372)"><path class="f" d="M63.7,62.59a1.225,1.225,0,1,1,1.226-1.226A1.227,1.227,0,0,1,63.7,62.59Z" transform="translate(-62.479 -60.139)"/></g><g transform="translate(11.06 7.372)"><path class="g" d="M91.455,62.59a1.225,1.225,0,1,1,1.226-1.226A1.227,1.227,0,0,1,91.455,62.59Z" transform="translate(-90.229 -60.139)"/></g><g transform="translate(14.462 7.372)"><path class="h" d="M119.2,62.59a1.225,1.225,0,1,1,1.226-1.226A1.227,1.227,0,0,1,119.2,62.59Z" transform="translate(-117.979 -60.139)"/></g><path class="c" d="M134.234,94.727v-.876h-23.66a3.549,3.549,0,0,1-3.549,3.549H134.46A16.1,16.1,0,0,1,134.234,94.727Z" transform="translate(-93.906 -82.347)"/><path class="c" d="M297.63,229.168h-9.378a2.642,2.642,0,0,1,0,3.31h9.378a1.655,1.655,0,1,0,0-3.31Z" transform="translate(-252.918 -201.076)"/><path class="h" d="M95.554,230.823a2.636,2.636,0,0,1,.582-1.655H75.661a1.655,1.655,0,1,0,0,3.31H96.136A2.636,2.636,0,0,1,95.554,230.823Z" transform="translate(-64.934 -201.076)"/><path class="i" d="M200.344,229.168h-7.571a1.655,1.655,0,1,1,0,3.31h7.571a2.642,2.642,0,0,1,0-3.31Z" transform="translate(-169.143 -201.076)"/><circle class="j" cx="4.683" cy="4.683" r="4.683" transform="translate(10.861 36.763)"/><path class="f" d="M95.154,401.113a1.007,1.007,0,0,0-1.744,0l-3.672,6.351a30.1,30.1,0,0,0,4.289,2.937h4.751a1.007,1.007,0,0,0,.872-1.511Z" transform="translate(-78.738 -351.503)"/><path class="k" d="M89.739,411.064A30.089,30.089,0,0,0,94.028,414a1.01,1.01,0,0,1,.255-1.3v-1.9a.339.339,0,0,1,0-.442v-3.5c-1.239-.438-.872-2.144-.872-2.144Z" transform="translate(-78.739 -355.103)"/><path class="b" d="M348.753,12.793a3.427,3.427,0,0,1-2.788-3.564.561.561,0,0,0-.376-.534,21.886,21.886,0,0,0-14.492,0,.562.562,0,0,0-.376.534,3.427,3.427,0,0,1-2.788,3.564.565.565,0,0,0-.438.549v5.584a15.947,15.947,0,0,0,10.339,15.005,1.463,1.463,0,0,0,1.019,0,15.948,15.948,0,0,0,10.339-15.005V13.342A.565.565,0,0,0,348.753,12.793Z" transform="translate(-287.349 -6.546)"/><path class="c" d="M345,37.859a1.505,1.505,0,0,1-1.376-1.487.371.371,0,0,0-.3-.332c-4.033-.811-4.828-4.721-4.962-5.653a.371.371,0,0,0-.216-.285c-4.588-2.088-4.474-7.118-4.352-8.486a.368.368,0,0,0-.3-.395,2.294,2.294,0,0,1-1.83-1.683.352.352,0,0,0-.215-.23,1.029,1.029,0,0,1-.586-.584.559.559,0,0,0-.152.388,3.427,3.427,0,0,1-2.788,3.564.565.565,0,0,0-.438.549v5.584a15.947,15.947,0,0,0,10.339,15.005,1.464,1.464,0,0,0,1.019,0,15.736,15.736,0,0,0,6.739-4.833,1.2,1.2,0,0,1-.275-.773.364.364,0,0,0-.314-.349Z" transform="translate(-287.35 -16.429)"/><g transform="translate(39.225 0)"><path class="c" d="M330.934,28.247a16.861,16.861,0,0,1-10.939-15.867V6.8a1.48,1.48,0,0,1,1.146-1.443,2.5,2.5,0,0,0,2.081-2.662,1.481,1.481,0,0,1,.991-1.409,22.886,22.886,0,0,1,15.1,0,1.48,1.48,0,0,1,.991,1.409,2.5,2.5,0,0,0,2.081,2.662A1.48,1.48,0,0,1,343.531,6.8v5.585a16.858,16.858,0,0,1-10.939,15.867A2.386,2.386,0,0,1,330.934,28.247Zm-9.1-21.176v5.309a15.022,15.022,0,0,0,9.74,14.143.547.547,0,0,0,.38,0,15.022,15.022,0,0,0,9.739-14.143V7.071a4.3,4.3,0,0,1-3.221-4.135,21.043,21.043,0,0,0-13.416,0,4.3,4.3,0,0,1-3.221,4.135Z" transform="translate(-319.995 0)"/></g><path class="l" d="M338.736,31.043a.369.369,0,0,0-.1-.238,14.833,14.833,0,0,1-6.685,4.981.547.547,0,0,1-.38,0,15.023,15.023,0,0,1-9.74-14.143V16.334a4.286,4.286,0,0,0,3.217-4.053.369.369,0,0,0-.172-.139,1.326,1.326,0,0,1-.687-1.452.365.365,0,0,0-.011-.134,1.48,1.48,0,0,0-.958,1.4,2.5,2.5,0,0,1-2.081,2.662,1.48,1.48,0,0,0-1.146,1.443v5.585A16.861,16.861,0,0,0,330.933,37.51a2.386,2.386,0,0,0,1.659,0,16.659,16.659,0,0,0,7.316-5.343.385.385,0,0,0-.179-.054.992.992,0,0,1-.992-1.07Z" transform="translate(-280.769 -9.263)"/><path class="g" d="M421.505,38.72a6.546,6.546,0,0,1-2.557-3.317.622.622,0,0,0-.444-.4A18.67,18.67,0,0,0,414,34.511v9.772h7.681a13.069,13.069,0,0,0,.1-1.623V39.24A.624.624,0,0,0,421.505,38.72Z" transform="translate(-363.249 -30.28)"/><path class="m" d="M414,112.237v10.154c.082.037.163.076.245.112a12.415,12.415,0,0,0,5.282-4.359,12.722,12.722,0,0,0,2.183-5.906H414Z" transform="translate(-363.25 -98.479)"/><path class="n" d="M419.458,118.239a.375.375,0,0,0-.229-.147c-4.033-.811-4.828-4.721-4.962-5.653a.362.362,0,0,0-.1-.2H414v10.154c.082.038.163.076.245.112A12.408,12.408,0,0,0,419.458,118.239Z" transform="translate(-363.25 -98.48)"/><path class="m" d="M357.771,34.985a.622.622,0,0,0-.443.4,6.544,6.544,0,0,1-2.557,3.317.625.625,0,0,0-.276.52v3.42a13.058,13.058,0,0,0,.1,1.623h7.436V34.492A18.653,18.653,0,0,0,357.771,34.985Z" transform="translate(-311.041 -30.264)"/><path class="n" d="M362.035,49.274a.375.375,0,0,0-.192-.2c-4.588-2.088-4.474-7.118-4.352-8.486a.367.367,0,0,0-.065-.242.626.626,0,0,0-.1.178,6.545,6.545,0,0,1-2.557,3.317.625.625,0,0,0-.276.519v3.42a13.064,13.064,0,0,0,.1,1.623h7.436Z" transform="translate(-311.042 -35.402)"/><path class="o" d="M355.1,112.238a12.723,12.723,0,0,0,2.182,5.9,12.414,12.414,0,0,0,5.283,4.361V112.238Z" transform="translate(-311.569 -98.48)"/><path class="p" d="M170.376,64.476H152.9a.919.919,0,0,1,0-1.839h17.478a.919.919,0,0,1,0,1.839Z" transform="translate(-133.349 -54.959)"/><path class="c" d="M78.8,162.006h-4.88a.919.919,0,0,1,0-1.839H78.8a.919.919,0,0,1,0,1.839Z" transform="translate(-64.057 -140.534)"/><path class="l" d="M82.629,189.34h-8.7a.919.919,0,1,1,0-1.839h8.7a.919.919,0,1,1,0,1.839Z" transform="translate(-64.057 -164.517)"/><path class="c" d="M203.888,305.006h-12.8a.919.919,0,0,1,0-1.839h12.8a.919.919,0,0,1,0,1.839Z" transform="translate(-166.861 -266.004)"/><path class="l" d="M211.359,332.34H191.092a.919.919,0,1,1,0-1.839h20.267a.919.919,0,1,1,0,1.839Z" transform="translate(-166.861 -289.988)"/><path class="l" d="M211.359,359.673H191.092a.919.919,0,1,1,0-1.839h20.267a.919.919,0,1,1,0,1.839Z" transform="translate(-166.861 -313.97)"/><path class="c" d="M203.888,413.673h-12.8a.919.919,0,0,1,0-1.839h12.8a.919.919,0,0,1,0,1.839Z" transform="translate(-166.861 -361.351)"/><path class="l" d="M211.359,441.006H191.092a.919.919,0,1,1,0-1.839h20.267a.919.919,0,1,1,0,1.839Z" transform="translate(-166.861 -385.333)"/><path class="l" d="M211.359,468.34H191.092a.919.919,0,1,1,0-1.839h20.267a.919.919,0,1,1,0,1.839Z" transform="translate(-166.861 -409.317)"/><path class="b" d="M120.225,425.707a.919.919,0,0,1-.919-.919v-1.665a.919.919,0,1,1,1.839,0v1.665A.919.919,0,0,1,120.225,425.707Z" transform="translate(-104.681 -370.449)"/><path class="b" d="M120.225,456.286a.919.919,0,0,1-.919-.919v-.057a.919.919,0,0,1,1.839,0v.057A.919.919,0,0,1,120.225,456.286Z" transform="translate(-104.681 -398.691)"/><path class="m" d="M48.422,93.851H35.91V97.4h8.963A3.549,3.549,0,0,0,48.422,93.851Z" transform="translate(-31.508 -82.347)"/><circle class="q" cx="2.905" cy="2.905" r="2.905" transform="translate(30.363 26.841)"/><circle class="r" cx="1.151" cy="1.151" r="1.151" transform="translate(32.031 29.243) rotate(-45)"/><circle class="s" cx="1.255" cy="1.255" r="1.255" transform="translate(52.725 9.372)"/><path class="s" d="M451.812,67.421a.752.752,0,1,1-.752-.752A.752.752,0,0,1,451.812,67.421Z" transform="translate(-395.108 -58.497)"/><path class="t" d="M93.484,309.918a1.262,1.262,0,0,1-.2-1.584v-1.906a.367.367,0,0,1,0-.535l-.23-3.588c-1.183-.338-.694-1.646-.69-1.658a4.684,4.684,0,0,0,.92,9.276c.067,0,.134,0,.2,0Z" transform="translate(-77.739 -263.793)"/><g transform="translate(14.625 38.482)"><path class="b" d="M120.225,317.548a.919.919,0,0,1-.919-.919v-1.779a.919.919,0,1,1,1.839,0v1.779A.919.919,0,0,1,120.225,317.548Z" transform="translate(-119.306 -313.93)"/><path class="b" d="M120.225,349.717a.919.919,0,0,1-.919-.919v-.067a.919.919,0,0,1,1.839,0v.067A.919.919,0,0,1,120.225,349.717Z" transform="translate(-119.306 -343.658)"/></g></svg>