<svg xmlns="http://www.w3.org/2000/svg" width="63" height="63" viewBox="0 0 63 63"><defs><style>.a{fill:#7acaa6;}.b{fill:#57be92;}.c{fill:#c59191;}.d{fill:#fff;}.e{fill:#ffcebf;}.f{fill:#8795de;}.g{fill:#ffb09e;}.h{fill:#7a6d79;}.i{fill:#685e68;}.j{fill:#b98080;}.k{fill:#efedef;}.l{fill:#e5e1e5;}.m{fill:#c9bfc8;}</style></defs><g transform="translate(0.468 0)"><path class="a" d="M3.806,9.925A9.924,9.924,0,1,1,20.253,17.4a.431.431,0,0,0,.063.7l1.87,1.106a.345.345,0,0,1-.176.642l-8.468,0A9.924,9.924,0,0,1,3.806,9.925Z" transform="translate(-3.806 0)"/></g><path class="b" d="M79.479,19.206,77.609,18.1a.43.43,0,0,1-.066-.693A9.924,9.924,0,0,0,71.319,0a10,10,0,0,0-2.181.175,9.922,9.922,0,0,1,5.977,15.833,2.143,2.143,0,0,0,.579,3.171l.039.023a.345.345,0,0,1-.165.641H79.3a.345.345,0,0,0,.176-.642Z" transform="translate(-60.631 0)"/><g transform="translate(14.476 0)"><g transform="translate(0 0)"><path class="c" d="M188.93,36.023H166.417a6.639,6.639,0,0,1-5.109-10.88l.2-.241a10.62,10.62,0,0,0,2.448-6.783V13.778a13.778,13.778,0,0,1,27.556,0v4.488a10.62,10.62,0,0,0,2.5,6.841A6.639,6.639,0,0,1,188.93,36.023Z" transform="translate(-154.583 0)"/><path class="d" d="M163.832,257.8v14.884H117.65V257.91a8.31,8.31,0,0,1,5.086-7.66l7.455-3.241,2.51-1.091a5.216,5.216,0,0,0,3.136-4.784v-.963h9.806v.914a5.217,5.217,0,0,0,3.162,4.794l10.084,4.323A8.309,8.309,0,0,1,163.832,257.8Z" transform="translate(-117.65 -210.618)"/><path class="e" d="M216.095,250.559a35.712,35.712,0,0,0,21.1-.2l1.216-2.895-3.7-1.587a5.216,5.216,0,0,1-3.161-4.794v-.913h-9.806v.963a5.216,5.216,0,0,1-3.136,4.784l-3,1.3Z" transform="translate(-203.555 -210.62)"/><g transform="translate(0 36.327)"><path class="f" d="M398.65,298.482l-7.6-3.256h0v25.737h12.541V306.079a8.31,8.31,0,0,0-4.943-7.6Z" transform="translate(-357.412 -295.226)"/><path class="f" d="M130.191,295.75v25.672H117.65V306.651a8.311,8.311,0,0,1,5.086-7.66Z" transform="translate(-117.65 -295.686)"/></g></g><g transform="translate(9.373)"><path class="g" d="M270.511,245.555a8.247,8.247,0,0,0,3.183-.635,5.216,5.216,0,0,1-1.679-3.833v-.913h-9.806v.963a5.207,5.207,0,0,1-.457,2.133,8.244,8.244,0,0,0,5.707,2.286h3.052Z" transform="translate(-253.394 -210.62)"/><path class="e" d="M245.263,81.928V90.04a8.275,8.275,0,0,1-8.275,8.275h-3.052a8.275,8.275,0,0,1-8.275-8.275V81.928a5.383,5.383,0,0,1,5.383-5.383h8.835A5.383,5.383,0,0,1,245.263,81.928Z" transform="translate(-221.745 -67.126)"/><path class="h" d="M337.3,154.593c0,.011-.008.022-.012.033a8.731,8.731,0,0,1-2.981,4.447,8.337,8.337,0,0,1-2.995,1.463.937.937,0,1,0,.475,1.812,10.2,10.2,0,0,0,3.663-1.792A10.031,10.031,0,0,0,337.3,158.7c0-.073.006-.145.006-.218v-3.892Z" transform="translate(-313.783 -135.571)"/><path class="i" d="M299.415,198.155H297.22a1.809,1.809,0,0,1,0-3.618h2.195a1.809,1.809,0,0,1,0,3.618Z" transform="translate(-282.912 -170.6)"/><path class="j" d="M321.1,21.178c.21-2.65,2.748-4.409,5.176-5.32a13.77,13.77,0,0,1,6.707,11.827v.947c-.222.047-.443.087-.662.12a11.155,11.155,0,0,1-3.256,0C324.051,28.084,320.847,24.379,321.1,21.178Z" transform="translate(-305.428 -13.907)"/><path class="c" d="M207.606,0a13.716,13.716,0,0,1,8.289,2.772,24.576,24.576,0,0,1-8.747,8.891,24.382,24.382,0,0,1-9.281,3.183h-4.038V13.778A13.778,13.778,0,0,1,207.606,0Z" transform="translate(-193.828)"/></g></g><path class="k" d="M205.437,378.455H175.456l-1.654-15.6a1.873,1.873,0,0,1,1.863-2.071h29.563a1.873,1.873,0,0,1,1.863,2.071Z" transform="translate(-152.407 -316.392)"/><path class="l" d="M402.572,360.785h-3.746a1.873,1.873,0,0,1,1.863,2.071l-1.654,15.6h3.746l1.654-15.6A1.873,1.873,0,0,0,402.572,360.785Z" transform="translate(-349.752 -316.392)"/><g transform="translate(0 61.154)"><path class="m" d="M62.077,498.846H.923a.923.923,0,0,1,0-1.846H62.077a.923.923,0,0,1,0,1.846Z" transform="translate(0 -497)"/></g><circle class="m" cx="2.622" cy="2.622" r="2.622" transform="translate(35.417 50.606)"/><g transform="translate(5.71 8.988)"><circle class="d" cx="0.937" cy="0.937" r="0.937"/><circle class="d" cx="0.937" cy="0.937" r="0.937" transform="translate(3.746)"/><circle class="d" cx="0.937" cy="0.937" r="0.937" transform="translate(7.493)"/></g></svg>