<svg xmlns="http://www.w3.org/2000/svg" width="55" height="49.412" viewBox="0 0 55 49.412"><defs><style>.a{fill:#ed9abc;}.b{fill:#ebe7f2;}.c{fill:#846f75;}</style></defs><g transform="translate(-22.798 -43.826)"><path class="a" d="M100.868,98.535a.654.654,0,0,1-.654-.653V90.548a.654.654,0,0,1,.654-.654H106.1l-8.545-8.545-8.545,8.545h5.228a.654.654,0,0,1,.653.654v7.334a.653.653,0,0,1-1.307,0V91.2H87.429a.654.654,0,0,1-.462-1.116L97.089,79.963a.673.673,0,0,1,.924,0l10.122,10.123a.654.654,0,0,1-.462,1.116h-6.152v6.68A.654.654,0,0,1,100.868,98.535Z" transform="translate(-47.254 -26.555)"/><path class="b" d="M142.754,211.949h-3.268a.654.654,0,0,1-.654-.654v-2.309a.654.654,0,0,1,.654-.654h3.268a.654.654,0,0,1,.653.654V211.3A.654.654,0,0,1,142.754,211.949Zm-2.614-1.307h1.96v-1h-1.96Z" transform="translate(-85.703 -121.505)"/><g transform="translate(22.798 43.826)"><path class="c" d="M70.721,56.589a8.086,8.086,0,0,0-8.033-7.48,7.982,7.982,0,0,0-2.853.523A16.646,16.646,0,0,0,31.1,56.242a10.563,10.563,0,0,0,2.257,20.882h4a.653.653,0,0,0,0-1.307h-4a9.256,9.256,0,0,1-1.61-18.37.653.653,0,0,0,.523-.494A15.339,15.339,0,0,1,59.133,50.83a.653.653,0,0,0,.777.183,6.693,6.693,0,0,1,2.777-.6,6.77,6.77,0,0,1,6.744,6.662.654.654,0,0,0,.466.618,9.257,9.257,0,0,1-2.666,18.122H63.342a.654.654,0,0,0,0,1.307h3.893a10.564,10.564,0,0,0,3.487-20.536Z" transform="translate(-22.798 -43.826)"/><path class="c" d="M100.578,156.944a.653.653,0,0,0-.607-.413H81.327a.653.653,0,0,0-.607.413l-3.244,8.19a.653.653,0,1,0,1.215.482l1.983-5.006v15.219a.654.654,0,0,0,.653.654H99.97a.654.654,0,0,0,.654-.654V160.61l1.983,5.006a.654.654,0,0,0,.608.413.646.646,0,0,0,.24-.046.653.653,0,0,0,.366-.848ZM99,157.838l-2.756,6.883h-11.2l-2.757-6.883ZM81.98,175.175v-14.6L84,165.62a.654.654,0,0,0,.607.41H96.69a.653.653,0,0,0,.607-.41l2.02-5.045v14.6Z" transform="translate(-63.149 -127.07)"/></g></g></svg>