<svg xmlns="http://www.w3.org/2000/svg" width="46" height="47.139" viewBox="0 0 46 47.139"><defs><style>.a{opacity:0.8;}.b{fill:#cecece;}.c{fill:#afafaf;}.d{fill:#e2e2e2;}.e{fill:#63bce7;}.f{fill:#6377e7;}.g{fill:#63e2e7;}.h{fill:#9e9e9e;}.i{fill:#707070;}.j{fill:#f8af23;}.k{fill:#f87023;}.l{fill:#f8d323;}.m{fill:#f46275;}.n{fill:#3f3679;}</style></defs><g class="a" transform="translate(-7.82 -4.843)"><rect class="b" width="41.962" height="28.919" rx="13.665" transform="translate(9.839 9.87)"/><path class="c" d="M20.284,57.414V33.726A2.618,2.618,0,0,1,22.9,31.111H20.985a2.618,2.618,0,0,0-2.615,2.615V57.414a2.618,2.618,0,0,0,2.615,2.615H22.9a2.618,2.618,0,0,1-2.615-2.615Z" transform="translate(-8.531 -21.241)"/><path class="d" d="M216.58,57.414V33.725a2.618,2.618,0,0,0-2.615-2.615h1.914a2.618,2.618,0,0,1,2.615,2.615V57.414a2.618,2.618,0,0,1-2.615,2.615h-1.914A2.618,2.618,0,0,0,216.58,57.414Z" transform="translate(-166.693 -21.24)"/><rect class="e" width="38.743" height="23.403" rx="5.256" transform="translate(11.448 11.479)"/><path class="f" d="M28.693,61.917V40.525A1.009,1.009,0,0,1,29.7,39.519H27.785a1.009,1.009,0,0,0-1.006,1.006V61.917a1.009,1.009,0,0,0,1.006,1.006H29.7A1.009,1.009,0,0,1,28.693,61.917Z" transform="translate(-15.331 -28.04)"/><path class="g" d="M214.971,61.917V40.525a1.009,1.009,0,0,0-1.006-1.006h1.914a1.009,1.009,0,0,1,1.006,1.006V61.917a1.009,1.009,0,0,1-1.006,1.006h-1.914A1.009,1.009,0,0,0,214.971,61.917Z" transform="translate(-166.693 -28.04)"/><circle class="h" cx="7.651" cy="7.651" r="7.651" transform="translate(23.169 25.748)"/><path class="i" d="M89.876,121.728a7.65,7.65,0,0,1,6.693-7.589,7.651,7.651,0,1,0,0,15.178A7.651,7.651,0,0,1,89.876,121.728Z" transform="translate(-64.793 -88.329)"/><path class="j" d="M73.145,194.033h7.177a8.545,8.545,0,0,1,8.545,8.545H64.6a8.545,8.545,0,0,1,8.545-8.545Z" transform="translate(-45.913 -152.983)"/><path class="k" d="M75.059,194.033H73.145a8.545,8.545,0,0,0-8.545,8.545h1.914a8.545,8.545,0,0,1,8.545-8.545Z" transform="translate(-45.913 -152.983)"/><rect class="j" width="29.664" height="16.449" rx="8.225" transform="translate(15.988 6.732)"/><path class="k" d="M52.414,29.247V16.626a1.914,1.914,0,0,1,1.914-1.914H52.414A1.914,1.914,0,0,0,50.5,16.626V29.247a1.914,1.914,0,0,0,1.914,1.914h1.914A1.914,1.914,0,0,1,52.414,29.247Z" transform="translate(-34.512 -7.98)"/><path class="l" d="M187.414,29.247V16.626a1.914,1.914,0,0,0-1.914-1.914h1.914a1.914,1.914,0,0,1,1.914,1.914V29.247a1.914,1.914,0,0,1-1.914,1.914H185.5A1.914,1.914,0,0,0,187.414,29.247Z" transform="translate(-143.676 -7.98)"/><path class="m" d="M205.493,6.52a.6.6,0,0,1,0,.846l-.883.883a.6.6,0,1,1-.846-.846l.883-.883a.6.6,0,0,1,.846,0Z" transform="translate(-158.303 -1.214)"/><path class="e" d="M0,0H11.507V2.366H0Z" transform="translate(36.896 13.926) rotate(-45)"/><path class="m" d="M0,0H5.557V2.73H0Z" transform="translate(32.838 17.725) rotate(-45)"/><path class="e" d="M137.642,74.492l-2.447.774.774-2.447Z" transform="translate(-102.998 -54.967)"/><g transform="translate(7.82 4.843)"><path class="n" d="M11.555,248.156H8.11a.287.287,0,1,0,0,.574h3.445a.287.287,0,1,0,0-.574Z" transform="translate(-7.822 -201.591)"/><path class="n" d="M230.912,248.156h-3.445a.287.287,0,1,0,0,.574h3.445a.287.287,0,1,0,0-.574Z" transform="translate(-185.199 -201.591)"/><path class="n" d="M70.94,248.156H36.308a.287.287,0,1,0,0,.574H70.94a.287.287,0,1,0,0-.574Z" transform="translate(-30.624 -201.591)"/><path class="n" d="M8.107,49.882H53.533a.287.287,0,1,0,0-.574h-10.3a8.842,8.842,0,0,0-8.825-8.545h-.63a7.959,7.959,0,0,0,2.582-1.687H49.186a2.906,2.906,0,0,0,2.9-2.9V12.485a2.906,2.906,0,0,0-2.9-2.9H45.939V8.636l.975-.975a.287.287,0,0,0,0-.406L46.7,7.045l.691-.691A.885.885,0,1,0,46.141,5.1l-.691.691-.211-.211a.3.3,0,0,0-.406,0l-.877.877a.287.287,0,0,0-.049-.009c-.056,0-.113-.007-.17-.007H17.9a2.2,2.2,0,0,0-2.2,2.2v.938H12.454a2.906,2.906,0,0,0-2.9,2.9V36.174a2.906,2.906,0,0,0,2.9,2.9H25.279a7.96,7.96,0,0,0,2.582,1.687h-.63a8.842,8.842,0,0,0-8.825,8.545H8.107a.287.287,0,1,0,0,.574ZM49.186,10.157a2.331,2.331,0,0,1,2.328,2.328V36.174A2.331,2.331,0,0,1,49.186,38.5H36.895a7.917,7.917,0,0,0,1.662-3.332H49.186a1.294,1.294,0,0,0,1.293-1.293V12.485a1.294,1.294,0,0,0-1.293-1.293H45.939V10.157ZM22.882,33.4a7.968,7.968,0,0,0,.09,1.2H12.454a.719.719,0,0,1-.719-.719V12.485a.719.719,0,0,1,.719-.719H15.7v9.5a2.2,2.2,0,0,0,2.2,2.2H43.738a2.2,2.2,0,0,0,2.2-2.2v-9.5h3.247a.719.719,0,0,1,.719.719V33.877a.719.719,0,0,1-.719.719H38.668a7.938,7.938,0,1,0-15.786-1.2ZM46.547,5.508a.311.311,0,0,1,.44.44l-.691.691-.44-.44Zm-1.51.683L46.3,7.459l-7.732,7.732-1.267-1.267ZM20.591,20.746v-5.5h9.942v5.5ZM30.82,14.669H20.591v-5.5H41.049v.2l-4.164,4.164a.286.286,0,0,0-.317.059l-3.93,3.929a.287.287,0,0,0,0,.406l.006.006-.722,2.28a.287.287,0,0,0,.36.36l2.281-.721.006.006a.287.287,0,0,0,.406,0L38.9,15.928a.285.285,0,0,0,.06-.317l2.085-2.085v7.22H31.107V14.956a.287.287,0,0,0-.287-.287Zm3.287,4.725-1.468.464.465-1.469Zm.666-.146-1.525-1.525L36.771,14.2,38.3,15.725Zm-18.5-10.6A1.629,1.629,0,0,1,17.9,7.019H43.4L41.612,8.8a.287.287,0,0,0-.276-.212H20.3a.287.287,0,0,0-.287.287V21.033a.287.287,0,0,0,.287.287H41.336a.287.287,0,0,0,.287-.287V12.976c0-.007,0-.014,0-.021L45.365,9.21V21.267a1.629,1.629,0,0,1-1.627,1.627H17.9a1.629,1.629,0,0,1-1.627-1.627ZM10.126,36.174V12.485a2.331,2.331,0,0,1,2.328-2.328H15.7v1.035H12.454a1.294,1.294,0,0,0-1.293,1.293V33.877a1.294,1.294,0,0,0,1.293,1.293h10.63A7.917,7.917,0,0,0,24.745,38.5H12.454A2.331,2.331,0,0,1,10.126,36.174ZM23.456,33.4a7.364,7.364,0,1,1,7.364,7.364A7.364,7.364,0,0,1,23.456,33.4Zm3.775,7.938h7.177a8.268,8.268,0,0,1,8.253,7.971H18.978a8.268,8.268,0,0,1,8.253-7.97Z" transform="translate(-7.82 -4.843)"/><circle class="n" cx="1.204" cy="1.204" r="1.204" transform="translate(11.28 2.833)"/><circle class="n" cx="1.204" cy="1.204" r="1.204" transform="translate(21.796 8.909)"/><circle class="n" cx="1.204" cy="1.204" r="1.204" transform="translate(11.28 14.986)"/></g></g></svg>