<svg xmlns="http://www.w3.org/2000/svg" width="90" height="100.385" viewBox="0 0 90 100.385"><defs><style>.a{fill:#73cddc;}.b{fill:#5f78be;}.c{fill:#faa51e;}.d{fill:#ffcd06;}.e{fill:#46508c;}.f{fill:#f06423;}</style></defs><g transform="translate(-48 -24)"><g transform="translate(58.385 24)"><path class="a" d="M101.192,117.462h55.385a5.192,5.192,0,0,0,5.192-5.192V43.038L142.731,24H101.192A5.192,5.192,0,0,0,96,29.192v83.077A5.192,5.192,0,0,0,101.192,117.462Z" transform="translate(-96 -24)"/></g><g transform="translate(105.115 24)"><path class="b" d="M331.038,43.038H317.192A5.192,5.192,0,0,1,312,37.846V24Z" transform="translate(-312 -24)"/></g><g transform="translate(48 75.923)"><g transform="translate(0 0)"><path class="c" d="M94.731,312.462H51.462A3.461,3.461,0,0,1,48,309V267.462A3.461,3.461,0,0,1,51.462,264H94.731a3.461,3.461,0,0,1,3.462,3.462V309A3.461,3.461,0,0,1,94.731,312.462Z" transform="translate(-48 -264)"/><path class="d" d="M86.077,312.462H51.462A3.461,3.461,0,0,1,48,309V267.462A3.461,3.461,0,0,1,51.462,264H86.077a3.461,3.461,0,0,1,3.462,3.462V309A3.461,3.461,0,0,1,86.077,312.462Z" transform="translate(-48 -264)"/></g><g transform="translate(3.462 3.462)"><path class="e" d="M65.731,290.385H96.885a1.731,1.731,0,0,0,1.731-1.731v-6.923A1.731,1.731,0,0,0,96.885,280H65.731A1.731,1.731,0,0,0,64,281.731v6.923A1.731,1.731,0,0,0,65.731,290.385Z" transform="translate(-64 -280)"/></g><g transform="translate(3.462 17.308)"><path class="e" d="M65.731,371.692H96.885a1.731,1.731,0,0,0,1.731-1.731V345.731A1.731,1.731,0,0,0,96.885,344H65.731A1.731,1.731,0,0,0,64,345.731v24.231A1.731,1.731,0,0,0,65.731,371.692Z" transform="translate(-64 -344)"/></g><g transform="translate(3.462 17.308)"><path class="b" d="M65.731,371.692H93.423a1.731,1.731,0,0,0,1.731-1.731V345.731A1.731,1.731,0,0,0,93.423,344H65.731A1.731,1.731,0,0,0,64,345.731v24.231A1.731,1.731,0,0,0,65.731,371.692Z" transform="translate(-64 -344)"/></g><g transform="translate(3.462 17.308)"><path class="e" d="M95.154,356.692H80.731V344H78.423v12.692H64V359H78.423v12.692h2.308V359H95.154Z" transform="translate(-64 -344)"/></g><g transform="translate(23.51 22.356)"><path class="a" d="M163.157,369.929h-5.192a1.3,1.3,0,1,1,0-2.6h5.192a1.3,1.3,0,1,1,0,2.6Z" transform="translate(-156.667 -367.333)"/></g><g transform="translate(6.779 35.048)"><path class="a" d="M85.823,428.6H80.631a1.3,1.3,0,1,1,0-2.6h5.192a1.3,1.3,0,1,1,0,2.6Z" transform="translate(-79.333 -426)"/></g><g transform="translate(6.779 39.663)"><path class="a" d="M85.823,449.929H80.631a1.3,1.3,0,1,1,0-2.6h5.192a1.3,1.3,0,1,1,0,2.6Z" transform="translate(-79.333 -447.333)"/></g><g transform="translate(6.779 19.76)"><path class="a" d="M85.823,357.929h-1.3v-1.3a1.3,1.3,0,0,0-2.6,0v1.3h-1.3a1.3,1.3,0,1,0,0,2.6h1.3v1.3a1.3,1.3,0,1,0,2.6,0v-1.3h1.3a1.3,1.3,0,1,0,0-2.6Z" transform="translate(-79.333 -355.333)"/><path class="a" d="M163.442,429.606l1.39-1.39A1.3,1.3,0,0,0,163,426.381l-1.39,1.39-1.39-1.39a1.3,1.3,0,0,0-1.836,1.836l1.39,1.39-1.39,1.39a1.3,1.3,0,0,0,1.836,1.836l1.39-1.39,1.39,1.39A1.3,1.3,0,0,0,164.832,431Z" transform="translate(-140.981 -410.712)"/></g></g><g transform="translate(110.308 82.846)"><path class="c" d="M361.962,302.923H337.731A1.731,1.731,0,0,1,336,301.192v-3.462A1.731,1.731,0,0,1,337.731,296h24.231a1.731,1.731,0,0,1,1.731,1.731v3.462A1.731,1.731,0,0,1,361.962,302.923Z" transform="translate(-336 -296)"/><g transform="translate(13.846)"><path class="f" d="M412.115,296H400v6.923h12.115a1.731,1.731,0,0,0,1.731-1.731v-3.462A1.731,1.731,0,0,0,412.115,296Z" transform="translate(-400 -296)"/></g></g><g transform="translate(106.846 89.769)"><g transform="translate(0)"><path class="d" d="M345.962,334.923H321.731A1.731,1.731,0,0,1,320,333.192v-3.462A1.731,1.731,0,0,1,321.731,328h24.231a1.731,1.731,0,0,1,1.731,1.731v3.462A1.731,1.731,0,0,1,345.962,334.923Z" transform="translate(-320 -328)"/></g><g transform="translate(13.846)"><path class="c" d="M396.115,328H384v6.923h12.115a1.731,1.731,0,0,0,1.731-1.731v-3.462A1.731,1.731,0,0,0,396.115,328Z" transform="translate(-384 -328)"/></g></g><g transform="translate(110.308 103.615)"><path class="d" d="M361.962,398.923H337.731A1.731,1.731,0,0,1,336,397.192v-3.462A1.731,1.731,0,0,1,337.731,392h24.231a1.731,1.731,0,0,1,1.731,1.731v3.462A1.731,1.731,0,0,1,361.962,398.923Z" transform="translate(-336 -392)"/><g transform="translate(13.846)"><path class="c" d="M412.115,392H400v6.923h12.115a1.731,1.731,0,0,0,1.731-1.731v-3.462A1.731,1.731,0,0,0,412.115,392Z" transform="translate(-400 -392)"/></g></g><g transform="translate(110.308 117.462)"><path class="d" d="M361.962,462.923H337.731A1.731,1.731,0,0,1,336,461.192v-3.462A1.731,1.731,0,0,1,337.731,456h24.231a1.731,1.731,0,0,1,1.731,1.731v3.462A1.731,1.731,0,0,1,361.962,462.923Z" transform="translate(-336 -456)"/><g transform="translate(13.846)"><path class="c" d="M412.115,456H400v6.923h12.115a1.731,1.731,0,0,0,1.731-1.731v-3.462A1.731,1.731,0,0,0,412.115,456Z" transform="translate(-400 -456)"/></g></g><g transform="translate(106.846 110.538)"><g transform="translate(0)"><path class="c" d="M345.962,430.923H321.731A1.731,1.731,0,0,1,320,429.192v-3.462A1.731,1.731,0,0,1,321.731,424h24.231a1.731,1.731,0,0,1,1.731,1.731v3.462A1.731,1.731,0,0,1,345.962,430.923Z" transform="translate(-320 -424)"/></g><g transform="translate(13.846)"><path class="f" d="M396.115,424H384v6.923h12.115a1.731,1.731,0,0,0,1.731-1.731v-3.462A1.731,1.731,0,0,0,396.115,424Z" transform="translate(-384 -424)"/></g></g><g transform="translate(110.308 96.692)"><path class="c" d="M361.962,366.923H337.731A1.731,1.731,0,0,1,336,365.192v-3.462A1.731,1.731,0,0,1,337.731,360h24.231a1.731,1.731,0,0,1,1.731,1.731v3.462A1.731,1.731,0,0,1,361.962,366.923Z" transform="translate(-336 -360)"/><g transform="translate(13.846)"><path class="f" d="M412.115,360H400v6.923h12.115a1.731,1.731,0,0,0,1.731-1.731v-3.462A1.731,1.731,0,0,0,412.115,360Z" transform="translate(-400 -360)"/></g></g><path class="b" d="M148.115,132.115a1.731,1.731,0,0,0,1.731-1.731v-1.169a5.762,5.762,0,0,0-5.192-5.726v-1.758a1.731,1.731,0,0,0-3.462,0v1.758a5.754,5.754,0,0,0-1.258,11.185l4.882,1.627a2.292,2.292,0,0,1-.725,4.467h-2.338a2.3,2.3,0,0,1-2.293-2.292v-1.169a1.731,1.731,0,1,0-3.462,0v1.169a5.762,5.762,0,0,0,5.192,5.726v1.758a1.731,1.731,0,1,0,3.462,0V144.2a5.754,5.754,0,0,0,1.258-11.185l-4.882-1.627a2.292,2.292,0,0,1,.725-4.467h2.338a2.3,2.3,0,0,1,2.293,2.292v1.169A1.731,1.731,0,0,0,148.115,132.115Z" transform="translate(-68.961 -75.231)"/><g transform="translate(86.077 48.231)"><path class="b" d="M248.231,136H227.462a3.462,3.462,0,0,0,0,6.923h20.769a3.462,3.462,0,1,0,0-6.923Z" transform="translate(-224 -136)"/></g><g transform="translate(86.077 62.077)"><path class="b" d="M248.231,200H227.462a3.462,3.462,0,1,0,0,6.923h20.769a3.462,3.462,0,1,0,0-6.923Z" transform="translate(-224 -200)"/></g></g></svg>