<svg xmlns="http://www.w3.org/2000/svg" width="100" height="100" viewBox="0 0 100 100"><defs><style>.a{fill:#ccf49f;}.b{fill:#95d6a4;}.c{fill:#857e87;}.d{fill:#ff8086;}.e{fill:#ffa95f;}.f{fill:#ffe07d;}.g{fill:#e5646e;}.h{fill:#dad8db;}.i{fill:#eceaec;}.j{fill:#fff;}.k{fill:#5d5360;}.l{fill:#78c2a4;}.m{fill:#6f6571;}.n{fill:#4b3f4e;}.o{fill:#b3e59f;}</style></defs><path class="a" d="M39.839,34.325a50.229,50.229,0,0,0-8.4,6.1c-10.192,9.15-14.75,26.552-12.4,37.2l20.727,6.055L70.5,74.431Z" transform="translate(-14.836 -27.621)"/><path class="b" d="M44.347,294.511C28.984,288.129,19.121,275.336,20.79,256H66.582L53.105,287.706Z" transform="translate(-16.582 -206)"/><path class="c" d="M164.394,304.389c9.109,0,18.115-1.953,24.112-6.625l1.148-3.287L185.1,276.7l-20.7-20.7-22.235,38.511C145.774,300.6,155.284,304.389,164.394,304.389Z" transform="translate(-114.394 -206)"/><path class="d" d="M281.317,271.95s8.421-4.709,11.945-8.644A49.777,49.777,0,0,0,306,229.982l-16.211-6.315L256,229.982l24.112,41.764Z" transform="translate(-206 -179.982)"/><path class="e" d="M281,34.325a49.967,49.967,0,0,1,25,43.3H256l12.3-32.1Z" transform="translate(-206 -27.621)"/><path class="f" d="M153.013,0a49.748,49.748,0,0,0-25,6.7l5.259,9.108L153.013,50l25-43.3a49.748,49.748,0,0,0-25-6.7Z" transform="translate(-103.013 0)"/><path class="g" d="M392.605,426.616a50.1,50.1,0,0,1-13.15,8.44l.885,1.532A50.279,50.279,0,0,0,392.605,426.616Z" transform="translate(-305.343 -343.293)"/><circle class="h" cx="33.871" cy="33.871" r="33.871" transform="translate(16.129 16.129)"/><circle class="i" cx="29.032" cy="29.032" r="29.032" transform="translate(20.968 20.968)"/><circle class="j" cx="9.677" cy="9.677" r="9.677" transform="translate(40.323 40.323)"/><path class="k" d="M208.064,139.42a1.613,1.613,0,0,1-1.14-2.753l37.1-37.1a1.613,1.613,0,1,1,2.281,2.281l-37.1,37.1A1.607,1.607,0,0,1,208.064,139.42Z" transform="translate(-166.129 -79.743)"/><path class="l" d="M25,299.3l2.762-4.785A49.972,49.972,0,0,1,4.208,256H0A49.968,49.968,0,0,0,25,299.3Z" transform="translate(0 -206)"/><circle class="m" cx="4.839" cy="4.839" r="4.839" transform="translate(45.161 45.161)"/><circle class="n" cx="1.613" cy="1.613" r="1.613" transform="translate(48.387 48.387)"/><path class="o" d="M0,102.751H4.208c-.106-1.332-.176-2.673-.176-4.032A49.819,49.819,0,0,1,16.606,65.555,49.843,49.843,0,0,0,0,102.751Z" transform="translate(0 -52.751)"/><path class="m" d="M130.779,453.177l-2.762,4.785a49.954,49.954,0,0,0,49.994,0l-.885-1.532a50.02,50.02,0,0,1-46.347-3.253Z" transform="translate(-103.013 -364.666)"/></svg>