<svg id="Layer_1" data-name="Layer 1" xmlns="http://www.w3.org/2000/svg" viewBox="0 0 512 512"><title>strategic business plan</title><path d="M420.861,62.211a5.965,5.965,0,0,0-8.519-.849L368.835,97.629a8.3,8.3,0,0,0,4.563,14.635l32.232,2.925c-4.757,41.342-17.073,78.13-36.683,109.394-18,28.69-42.163,52.893-71.832,71.936C231.736,338.481,161.708,343,130.139,342.547a40.619,40.619,0,1,0,.982,12.011c.941.01,1.9.016,2.9.016,34.49,0,104.21-6.006,169.571-47.957,31.168-20,56.575-45.459,75.517-75.657,20.615-32.867,33.53-71.436,38.469-114.686l32.355,2.936a8.3,8.3,0,0,0,7.122-13.574ZM90.612,380.445a28.612,28.612,0,1,1,28.611-28.612A28.644,28.644,0,0,1,90.612,380.445ZM383.387,101.121l32.03-26.7,26.7,32.03Z"/><path d="M403.031,328.752a40.612,40.612,0,1,0,40.611,40.612A40.658,40.658,0,0,0,403.031,328.752Zm0,69.224a28.612,28.612,0,1,1,28.611-28.612A28.644,28.644,0,0,1,403.031,397.976Z"/><path d="M86.369,153.945a6,6,0,0,0,8.485,0l20.232-20.231,20.231,20.231a6,6,0,0,0,8.485-8.485l-20.231-20.231L143.8,105a6,6,0,1,0-8.485-8.486l-20.231,20.231L94.854,96.512A6,6,0,0,0,86.369,105L106.6,125.229,86.369,145.46A6,6,0,0,0,86.369,153.945Z"/><path d="M211.191,225.683a6,6,0,0,0,8.485,0l20.231-20.231,20.232,20.231a6,6,0,0,0,8.485-8.485l-20.231-20.231,20.231-20.232a6,6,0,0,0-8.485-8.485l-20.232,20.231L219.676,168.25a6,6,0,1,0-8.485,8.485l20.231,20.232L211.191,217.2A6,6,0,0,0,211.191,225.683Z"/><path d="M272.875,392.839a6,6,0,0,0-8.485,0L244.159,413.07l-20.232-20.231a6,6,0,0,0-8.485,8.484l20.232,20.232-20.232,20.232a6,6,0,1,0,8.485,8.484l20.232-20.231,20.231,20.231a6,6,0,0,0,8.485-8.484l-20.232-20.232,20.232-20.232A6,6,0,0,0,272.875,392.839Z"/></svg>